<svg width="896" height="1024" xmlns="http://www.w3.org/2000/svg">

 <g>
  <title>background</title>
  <rect fill="none" id="canvas_background" height="402" width="582" y="-1" x="-1"/>
 </g>
 <g>
  <title>Layer 1</title>
  <path fill="white" id="svg_1" d="m703,900l-640,0l0,-576l640,0l0,192l64,0l0,-320c0,-35 -29,-64 -64,-64l-192,0c0,-71 -57,-128 -128,-128s-128,57 -128,128l-192,0c-35,0 -64,29 -64,64l0,704c0,35 29,64 64,64l640,0c35,0 64,-29 64,-64l0,-128l-64,0l0,128zm-512,-704c29,0 29,0 64,0s64,-29 64,-64s29,-64 64,-64s64,29 64,64s32,64 64,64s33,0 64,0s64,29 64,64l-512,0c0,-39 28,-64 64,-64zm-64,512l128,0l0,-64l-128,0l0,64zm448,-128l0,-128l-256,192l256,192l0,-128l320,0l0,-128l-320,0zm-448,256l192,0l0,-64l-192,0l0,64zm320,-448l-320,0l0,64l320,0l0,-64zm-192,128l-128,0l0,64l128,0l0,-64z"/>
 </g>
</svg>